<svg version="1.1" id="Layer_1" xmlns="http://www.w3.org/2000/svg" xmlns:xlink="http://www.w3.org/1999/xlink" x="0px" y="0px"
	 width="100%" viewBox="0 0 1145 1145" enable-background="new 0 0 1145 1145" xml:space="preserve">
<path fill="#FFFFFF" opacity="1.000000" stroke="none" 
	d="
M722.000000,1146.000000 
	C481.333344,1146.000000 241.166672,1146.000000 1.000000,1146.000000 
	C1.000000,764.333313 1.000000,382.666656 1.000000,1.000000 
	C382.666656,1.000000 764.333313,1.000000 1146.000000,1.000000 
	C1146.000000,382.666656 1146.000000,764.333313 1146.000000,1146.000000 
	C1004.833313,1146.000000 863.666687,1146.000000 722.000000,1146.000000 
M410.500000,248.000717 
	C365.007599,248.000519 319.515228,248.000549 274.022827,248.000015 
	C254.378967,247.999786 242.576721,269.167755 252.268738,284.507324 
	C256.699463,291.519836 260.499878,298.928375 264.656647,306.116516 
	C285.198914,341.639404 305.838501,377.106506 326.205994,412.729248 
	C328.199860,416.216431 330.305481,417.088440 334.001770,417.082550 
	C396.493317,416.982910 458.985168,416.960785 521.476440,417.129730 
	C525.445862,417.140442 527.415649,415.721497 529.185120,412.555450 
	C535.020691,402.114502 541.029785,391.770233 547.003967,381.407135 
	C560.119568,358.656097 573.243591,335.909912 586.386658,313.174713 
	C592.511108,302.580536 598.687622,292.016541 605.197449,280.825256 
	C608.016907,285.538727 610.519836,289.578918 612.884521,293.698456 
	C636.382874,334.634430 659.820068,375.605591 683.351135,416.522797 
	C707.026611,457.691254 730.723877,498.847534 754.564636,539.920410 
	C759.752747,548.858398 759.763611,557.265259 754.524536,566.158081 
	C745.075989,582.195862 735.977295,598.439453 726.690247,614.572693 
	C705.567627,651.266174 684.341125,687.900146 663.337830,724.661621 
	C658.211304,733.634460 650.915405,738.023804 640.648499,738.004761 
	C608.986206,737.946167 577.323608,738.015076 545.661255,737.974670 
	C537.656433,737.964478 531.629456,741.356079 527.406982,748.052490 
	C525.637878,750.858032 523.978882,753.734436 522.316772,756.605774 
	C501.341003,792.842896 480.433319,829.119690 459.373138,865.307739 
	C451.660156,878.561096 459.747589,895.995483 474.853455,898.010193 
	C478.461548,898.491455 482.120758,898.825867 485.756653,898.827820 
	C567.912354,898.873169 650.068115,898.862793 732.223877,898.862549 
	C740.933716,898.862488 749.216797,896.866516 753.842224,889.017639 
	C772.472046,857.405212 790.676331,825.541992 809.028687,793.766113 
	C828.225891,760.527588 847.396790,727.273682 866.608032,694.043213 
	C891.723206,650.600403 916.893677,607.189636 941.959839,563.718628 
	C944.748962,558.881592 946.426147,553.516846 944.010498,548.052856 
	C941.413147,542.177917 938.518616,536.401428 935.322388,530.829468 
	C914.746582,494.959381 894.070618,459.146698 873.392273,423.335510 
	C852.951416,387.935516 832.467102,352.560516 812.005371,317.172546 
	C801.036072,298.201569 790.076782,279.224823 779.107666,260.253723 
	C774.951050,253.064941 768.607422,249.139099 760.415039,249.045181 
	C723.266907,248.619293 686.116638,248.236237 648.966492,248.161224 
	C569.811218,248.001389 490.655518,248.042145 410.500000,248.000717 
M410.500000,736.992432 
	C375.676056,736.992249 340.851654,737.079285 306.028656,736.898193 
	C300.770599,736.870850 297.783325,739.061523 295.321259,743.366394 
	C283.372192,764.259033 271.247864,785.051270 259.212799,805.894897 
	C244.255753,831.799011 229.334549,857.723877 214.371994,883.624756 
	C212.511520,886.845398 211.784195,889.994019 213.787460,893.466248 
	C216.282898,897.791321 220.399048,897.976685 224.622391,897.977539 
	C277.441498,897.987854 330.260773,897.923096 383.079468,898.079224 
	C389.680511,898.098694 393.776886,895.571594 397.037964,889.886597 
	C423.656830,843.482422 450.533875,797.226135 477.068787,750.774353 
	C478.542114,748.195129 478.508240,744.058228 477.691772,741.049011 
	C476.731323,737.508972 473.069855,736.942932 469.484222,736.958862 
	C450.156494,737.044800 430.828125,736.995239 410.500000,736.992432 
M568.500000,505.997223 
	C525.850891,505.998199 483.201782,505.978363 440.552704,506.016937 
	C431.525665,506.025116 424.730591,509.843872 420.124451,517.844727 
	C398.156891,556.002258 376.059753,594.085205 354.027069,632.205261 
	C351.113617,637.245972 348.304901,642.347229 345.109161,648.021484 
	C347.800232,648.021484 349.458252,648.021667 351.116302,648.021423 
	C392.099304,648.015137 433.082275,648.008118 474.065277,648.002869 
	C491.724640,648.000610 509.384338,647.944397 527.042969,648.057129 
	C530.064270,648.076477 531.837830,647.191895 533.308960,644.402100 
	C536.715210,637.942749 540.563232,631.716675 544.220154,625.389099 
	C563.749451,591.597473 583.283020,557.808411 602.794128,524.006287 
	C606.073547,518.324768 609.250305,512.584167 612.967529,505.997223 
	C597.692383,505.997223 583.596191,505.997223 568.500000,505.997223 
z"/>
<path fill="#DE5838" opacity="1.000000" stroke="none" 
	d="
M411.000000,248.000717 
	C490.655518,248.042145 569.811218,248.001389 648.966492,248.161224 
	C686.116638,248.236237 723.266907,248.619293 760.415039,249.045181 
	C768.607422,249.139099 774.951050,253.064941 779.107666,260.253723 
	C790.076782,279.224823 801.036072,298.201569 812.005371,317.172546 
	C832.467102,352.560516 852.951416,387.935516 873.392273,423.335510 
	C894.070618,459.146698 914.746582,494.959381 935.322388,530.829468 
	C938.518616,536.401428 941.413147,542.177917 944.010498,548.052856 
	C946.426147,553.516846 944.748962,558.881592 941.959839,563.718628 
	C916.893677,607.189636 891.723206,650.600403 866.608032,694.043213 
	C847.396790,727.273682 828.225891,760.527588 809.028687,793.766113 
	C790.676331,825.541992 772.472046,857.405212 753.842224,889.017639 
	C749.216797,896.866516 740.933716,898.862488 732.223877,898.862549 
	C650.068115,898.862793 567.912354,898.873169 485.756653,898.827820 
	C482.120758,898.825867 478.461548,898.491455 474.853455,898.010193 
	C459.747589,895.995483 451.660156,878.561096 459.373138,865.307739 
	C480.433319,829.119690 501.341003,792.842896 522.316772,756.605774 
	C523.978882,753.734436 525.637878,750.858032 527.406982,748.052490 
	C531.629456,741.356079 537.656433,737.964478 545.661255,737.974670 
	C577.323608,738.015076 608.986206,737.946167 640.648499,738.004761 
	C650.915405,738.023804 658.211304,733.634460 663.337830,724.661621 
	C684.341125,687.900146 705.567627,651.266174 726.690247,614.572693 
	C735.977295,598.439453 745.075989,582.195862 754.524536,566.158081 
	C759.763611,557.265259 759.752747,548.858398 754.564636,539.920410 
	C730.723877,498.847534 707.026611,457.691254 683.351135,416.522797 
	C659.820068,375.605591 636.382874,334.634430 612.884521,293.698456 
	C610.519836,289.578918 608.016907,285.538727 605.197449,280.825256 
	C598.687622,292.016541 592.511108,302.580536 586.386658,313.174713 
	C573.243591,335.909912 560.119568,358.656097 547.003967,381.407135 
	C541.029785,391.770233 535.020691,402.114502 529.185120,412.555450 
	C527.415649,415.721497 525.445862,417.140442 521.476440,417.129730 
	C458.985168,416.960785 396.493317,416.982910 334.001770,417.082550 
	C330.305481,417.088440 328.199860,416.216431 326.205994,412.729248 
	C305.838501,377.106506 285.198914,341.639404 264.656647,306.116516 
	C260.499878,298.928375 256.699463,291.519836 252.268738,284.507324 
	C242.576721,269.167755 254.378967,247.999786 274.022827,248.000015 
	C319.515228,248.000549 365.007599,248.000519 411.000000,248.000717 
z"/>
<path fill="#DD5838" opacity="1.000000" stroke="none" 
	d="
M411.000000,736.992432 
	C430.828125,736.995239 450.156494,737.044800 469.484222,736.958862 
	C473.069855,736.942932 476.731323,737.508972 477.691772,741.049011 
	C478.508240,744.058228 478.542114,748.195129 477.068787,750.774353 
	C450.533875,797.226135 423.656830,843.482422 397.037964,889.886597 
	C393.776886,895.571594 389.680511,898.098694 383.079468,898.079224 
	C330.260773,897.923096 277.441498,897.987854 224.622391,897.977539 
	C220.399048,897.976685 216.282898,897.791321 213.787460,893.466248 
	C211.784195,889.994019 212.511520,886.845398 214.371994,883.624756 
	C229.334549,857.723877 244.255753,831.799011 259.212799,805.894897 
	C271.247864,785.051270 283.372192,764.259033 295.321259,743.366394 
	C297.783325,739.061523 300.770599,736.870850 306.028656,736.898193 
	C340.851654,737.079285 375.676056,736.992249 411.000000,736.992432 
z"/>
<path fill="#DD5838" opacity="1.000000" stroke="none" 
	d="
M569.000000,505.997223 
	C583.596191,505.997223 597.692383,505.997223 612.967529,505.997223 
	C609.250305,512.584167 606.073547,518.324768 602.794128,524.006287 
	C583.283020,557.808411 563.749451,591.597473 544.220154,625.389099 
	C540.563232,631.716675 536.715210,637.942749 533.308960,644.402100 
	C531.837830,647.191895 530.064270,648.076477 527.042969,648.057129 
	C509.384338,647.944397 491.724640,648.000610 474.065277,648.002869 
	C433.082275,648.008118 392.099304,648.015137 351.116302,648.021423 
	C349.458252,648.021667 347.800232,648.021484 345.109161,648.021484 
	C348.304901,642.347229 351.113617,637.245972 354.027069,632.205261 
	C376.059753,594.085205 398.156891,556.002258 420.124451,517.844727 
	C424.730591,509.843872 431.525665,506.025116 440.552704,506.016937 
	C483.201782,505.978363 525.850891,505.998199 569.000000,505.997223 
z"/>
</svg>